# xmcd CD database file
#
# Track frame offsets:
#	150
#	19145
#	44305
#	61425
#	77135
#	98962
#	113190
#	138635
#	157165
#	175655
#	195575
#
# Disc length: 2930 seconds
#
# Revision: 0
# Processed by: cddbd v1.5.2PL0 Copyright (c) Steve Scherf et al.
# Submitted via: CDex 1.51
#
DISCID=950b700b
DTITLE=Terumasa Hino - Oh Happy Day  Sbm Best Selection?
DYEAR=1900
DGENRE=Jazz
TTITLE0=Black Sand Beach
TTITLE1=Igor's Hideaway
TTITLE2=T Funk
TTITLE3=Pyramid
TTITLE4=Think About It
TTITLE5=NEW York Times (Single Version)
TTITLE6=Knight Angel (12inch Single Version)
TTITLE7=Aboriginal (Tv-Cf Single Version)
TTITLE8=Tattletales
TTITLE9=Oh Happy Day
TTITLE10=Alone,Alone And Alone
EXTD=
EXTT0=
EXTT1=
EXTT2=
EXTT3=
EXTT4=
EXTT5=
EXTT6=
EXTT7=
EXTT8=
EXTT9=
EXTT10=
PLAYORDER=
